# xmcd CD database file
#
# Track frame offsets:
#	150
#	14975
#	31097
#	46157
#	58745
#	70405
#	87657
#	101012
#	114982
#	133667
#	148525
#	164820
#	178235
#	189725
#	207552
#	223432
#	238677
#	257540
#
# Disc length: 3669 seconds
#
# Revision: 0
# Processed by: cddbd v1.5.1PL2 Copyright (c) Steve Scherf et al.
# Submitted via: CDex 1.51
#
DISCID=220e5312
DTITLE=Various Artist - Line Dance Party
DYEAR=1900
DGENRE=Country
TTITLE0=Achy Breaky Heart - Van Tress
TTITLE1=Red Neck Girl - David M. Bellamy
TTITLE2=Watermelon Crawl - Brock Turner
TTITLE3=Trouble - Jerry Chesnut
TTITLE4=White Lightning - Richardson
TTITLE5=Chattahoochee - Jackson Mc Bride
TTITLE6=Reaggae Cowboy - David M. Bellamy
TTITLE7=Boot Scootin' Boogie - Dunn
TTITLE8=Earthquacke - DP
TTITLE9=Fireman - Vickery Kemp
TTITLE10=Super Love - Lemaire Pennington
TTITLE11=Baby Likes To Rock It - Ripley Richmond
TTITLE12=Born To Boogie - Williams Jr.
TTITLE13=Neon Moon - Dunn
TTITLE14=Boogie Woogie Fiddle Country Blues 
TTITLE15=God Bless Texas - Howel Seals
TTITLE16=Red Neck Girl - Instrumentals
TTITLE17=Watermelon Crawl
EXTD=
EXTT0=
EXTT1=
EXTT2=
EXTT3=
EXTT4=
EXTT5=
EXTT6=
EXTT7=
EXTT8=
EXTT9=
EXTT10=
EXTT11=
EXTT12=
EXTT13=
EXTT14=
EXTT15=
EXTT16=
EXTT17=
PLAYORDER=
